<svg width="24" height="24" viewBox="0 0 24 24" fill="none" xmlns="http://www.w3.org/2000/svg">
<path d="M18.9569 5.26685C18.9513 5.25625 18.9421 5.24794 18.9309 5.24342C17.6342 4.65777 16.2658 4.24015 14.8599 4.00102C14.8472 3.99869 14.834 4.00037 14.8222 4.00584C14.8105 4.01131 14.8008 4.02029 14.7945 4.03149C14.6082 4.3644 14.439 4.70636 14.2877 5.05605C12.7723 4.8296 11.2308 4.8296 9.7154 5.05605C9.56307 4.70547 9.39121 4.36343 9.2006 4.03149C9.19406 4.02053 9.18432 4.01176 9.17265 4.00633C9.16098 4.00089 9.14791 3.99905 9.13516 4.00102C7.72916 4.23965 6.36067 4.6573 5.06412 5.24345C5.05302 5.24808 5.04366 5.25599 5.03732 5.26608C2.44449 9.07763 1.73421 12.7955 2.08265 16.4673C2.08363 16.4763 2.08644 16.485 2.09091 16.4929C2.09538 16.5008 2.10142 16.5077 2.10867 16.5133C3.61845 17.6137 5.30716 18.4537 7.10273 18.9973C7.11538 19.0011 7.12888 19.0009 7.14143 18.9968C7.15397 18.9928 7.16496 18.9851 7.1729 18.9747C7.55855 18.4581 7.90027 17.9112 8.19457 17.3393C8.19862 17.3315 8.20093 17.3229 8.20135 17.3141C8.20177 17.3053 8.2003 17.2965 8.19702 17.2884C8.19375 17.2802 8.18875 17.2728 8.18235 17.2666C8.17595 17.2605 8.16831 17.2557 8.15991 17.2527C7.62106 17.0497 7.09938 16.8051 6.59977 16.521C6.5907 16.5158 6.58308 16.5084 6.57758 16.4995C6.57208 16.4907 6.56888 16.4807 6.56826 16.4703C6.56764 16.46 6.56962 16.4496 6.57401 16.4402C6.57841 16.4308 6.5851 16.4226 6.59348 16.4163C6.69831 16.339 6.80321 16.2586 6.90331 16.1774C6.91221 16.1702 6.92297 16.1655 6.93438 16.164C6.9458 16.1625 6.95742 16.1642 6.96794 16.1688C10.241 17.6392 13.7846 17.6392 17.019 16.1688C17.0295 16.1639 17.0413 16.162 17.0529 16.1634C17.0644 16.1647 17.0754 16.1693 17.0844 16.1766C17.1846 16.2578 17.2894 16.339 17.395 16.4163C17.4035 16.4225 17.4102 16.4307 17.4147 16.4401C17.4192 16.4495 17.4212 16.4598 17.4207 16.4701C17.4201 16.4805 17.417 16.4905 17.4116 16.4994C17.4061 16.5083 17.3986 16.5157 17.3895 16.521C16.8911 16.8075 16.3689 17.052 15.8286 17.2519C15.8203 17.2551 15.8126 17.2599 15.8063 17.2662C15.7999 17.2724 15.795 17.2799 15.7918 17.2881C15.7886 17.2964 15.7872 17.3052 15.7877 17.314C15.7881 17.3229 15.7905 17.3315 15.7946 17.3393C16.0939 17.908 16.4351 18.4543 16.8155 18.9738C16.8232 18.9844 16.8342 18.9924 16.8468 18.9966C16.8594 19.0008 16.873 19.001 16.8857 18.9972C18.6845 18.4554 20.3761 17.6154 21.8878 16.5133C21.8952 16.508 21.9013 16.5012 21.9058 16.4934C21.9103 16.4856 21.913 16.477 21.9138 16.468C22.331 12.2231 21.2155 8.53569 18.9569 5.26685ZM8.68339 14.2315C7.69794 14.2315 6.88597 13.3413 6.88597 12.2481C6.88597 11.1548 7.68219 10.2645 8.68339 10.2645C9.6924 10.2645 10.4965 11.1625 10.4808 12.248C10.4808 13.3413 9.68451 14.2315 8.68339 14.2315ZM15.329 14.2315C14.3436 14.2315 13.5316 13.3413 13.5316 12.2481C13.5316 11.1548 14.3278 10.2645 15.329 10.2645C16.3381 10.2645 17.1422 11.1625 17.1264 12.248C17.1264 13.3413 16.3381 14.2315 15.329 14.2315Z" fill="black"/>
</svg>
