<svg width="24" height="24" viewBox="0 0 24 24" fill="none" xmlns="http://www.w3.org/2000/svg">
<path d="M11.9978 6.87225C14.8355 6.87225 17.1244 9.16166 17.1244 12C17.1244 14.8383 14.8355 17.1277 11.9978 17.1277C9.16007 17.1277 6.87117 14.8383 6.87117 12C6.87117 9.16166 9.16007 6.87225 11.9978 6.87225ZM11.9978 15.3337C13.8316 15.3337 15.3307 13.8387 15.3307 12C15.3307 10.1613 13.836 8.6663 11.9978 8.6663C10.1595 8.6663 8.66481 10.1613 8.66481 12C8.66481 13.8387 10.164 15.3337 11.9978 15.3337ZM5.4657 6.6625C5.4657 7.32746 6.00111 7.85853 6.66146 7.85853C7.32627 7.85853 7.85722 7.32299 7.85722 6.6625C7.85722 6.00201 7.32181 5.46647 6.66146 5.46647C6.00111 5.46647 5.4657 6.00201 5.4657 6.6625ZM2.07027 7.87638C2.14612 6.27424 2.51199 4.85507 3.68544 3.68582C4.85443 2.51657 6.27328 2.15062 7.87507 2.07029C9.52593 1.97657 14.4741 1.97657 16.1249 2.07029C17.7223 2.14616 19.1411 2.51211 20.3146 3.68136C21.488 4.85061 21.8494 6.26978 21.9297 7.87192C22.0234 9.52315 22.0234 14.4724 21.9297 16.1236C21.8539 17.7258 21.488 19.1449 20.3146 20.3142C19.1411 21.4834 17.7267 21.8494 16.1249 21.9297C14.4741 22.0234 9.52593 22.0234 7.87507 21.9297C6.27328 21.8538 4.85443 21.4879 3.68544 20.3142C2.51645 19.1449 2.15059 17.7258 2.07027 16.1236C1.97658 14.4724 1.97658 9.52761 2.07027 7.87638ZM4.20301 17.8953C4.55103 18.7701 5.22476 19.4439 6.10374 19.7965C7.41997 20.3186 10.5432 20.1981 11.9978 20.1981C13.4523 20.1981 16.58 20.3142 17.8918 19.7965C18.7663 19.4484 19.44 18.7745 19.7925 17.8953C20.3146 16.5788 20.1941 13.4549 20.1941 12C20.1941 10.5451 20.3101 7.41671 19.7925 6.10465C19.4445 5.22995 18.7708 4.55606 17.8918 4.2035C16.5756 3.68136 13.4523 3.80185 11.9978 3.80185C10.5432 3.80185 7.4155 3.68582 6.10374 4.2035C5.22922 4.5516 4.55549 5.22548 4.20301 6.10465C3.68098 7.42118 3.80145 10.5451 3.80145 12C3.80145 13.4549 3.68098 16.5833 4.20301 17.8953Z" fill="black"/>
</svg>
