<svg width="50" height="50" viewBox="0 0 50 50" fill="none" xmlns="http://www.w3.org/2000/svg">
<rect x="6.25" y="22.9166" width="4.16667" height="4.16667" transform="rotate(-90 6.25 22.9166)" fill="white"/>
<rect x="14.5833" y="22.9166" width="4.16667" height="4.16667" transform="rotate(-90 14.5833 22.9166)" fill="white"/>
<rect x="22.9167" y="22.9166" width="4.16667" height="4.16667" transform="rotate(-90 22.9167 22.9166)" fill="white"/>
<rect x="31.25" y="22.9166" width="4.16667" height="4.16667" transform="rotate(-90 31.25 22.9166)" fill="white"/>
<rect x="39.5833" y="22.9166" width="4.16667" height="4.16667" transform="rotate(-90 39.5833 22.9166)" fill="white"/>
<rect x="6.25" y="31.25" width="4.16667" height="4.16667" transform="rotate(-90 6.25 31.25)" fill="white"/>
<rect x="14.5833" y="31.25" width="4.16667" height="4.16667" transform="rotate(-90 14.5833 31.25)" fill="white"/>
<rect x="22.9167" y="31.25" width="4.16667" height="4.16667" transform="rotate(-90 22.9167 31.25)" fill="white"/>
<rect x="31.25" y="31.25" width="4.16667" height="4.16667" transform="rotate(-90 31.25 31.25)" fill="white"/>
<rect x="39.5833" y="31.25" width="4.16667" height="4.16667" transform="rotate(-90 39.5833 31.25)" fill="white"/>
<rect x="22.9167" y="43.75" width="4.16667" height="4.16667" transform="rotate(-180 22.9167 43.75)" fill="white"/>
<rect x="22.9167" y="35.4166" width="4.16667" height="4.16667" transform="rotate(-180 22.9167 35.4166)" fill="white"/>
<rect x="22.9167" y="27.0834" width="4.16667" height="4.16667" transform="rotate(-180 22.9167 27.0834)" fill="white"/>
<rect x="22.9167" y="18.75" width="4.16667" height="4.16667" transform="rotate(-180 22.9167 18.75)" fill="white"/>
<rect x="22.9167" y="10.4166" width="4.16667" height="4.16667" transform="rotate(-180 22.9167 10.4166)" fill="white"/>
<rect x="31.25" y="43.75" width="4.16667" height="4.16667" transform="rotate(-180 31.25 43.75)" fill="white"/>
<rect x="31.25" y="35.4166" width="4.16667" height="4.16667" transform="rotate(-180 31.25 35.4166)" fill="white"/>
<rect x="31.25" y="27.0834" width="4.16667" height="4.16667" transform="rotate(-180 31.25 27.0834)" fill="white"/>
<rect x="31.25" y="18.75" width="4.16667" height="4.16667" transform="rotate(-180 31.25 18.75)" fill="white"/>
<rect x="31.25" y="10.4166" width="4.16667" height="4.16667" transform="rotate(-180 31.25 10.4166)" fill="white"/>
</svg>
